<svg xmlns="http://www.w3.org/2000/svg" viewBox="0.6 1.06 27.06 18.94">
  <path d="M2.26 1.3200000000000003 l0 17 l1.46 0 l0 1.68 l-3.12 0 l0 -18.68 l1.66 0 z M9.7 3.3599999999999994 l0 14.34 q0 2.3 -2.24 2.3 l0.88 0 l-1.18 0 q-1.2 0 -1.72 -0.61 t-0.52 -1.69 l0 -14.34 q0 -1.1 0.52 -1.7 t1.72 -0.6 l0.98 0 l-0.68 0 q2.24 0 2.24 2.3 z M8.040000000000001 3.5799999999999983 q0 -0.4 -0.16 -0.63 t-0.58 -0.23 t-0.57 0.23 t-0.15 0.63 l0 13.9 q0 0.4 0.15 0.63 t0.57 0.23 t0.58 -0.23 t0.16 -0.63 l0 -13.9 z M15.68 3.3599999999999994 l0 14.34 q0 2.3 -2.24 2.3 l0.88 0 l-1.18 0 q-1.2 0 -1.72 -0.61 t-0.52 -1.69 l0 -14.34 q0 -1.1 0.52 -1.7 t1.72 -0.6 l0.98 0 l-0.68 0 q2.24 0 2.24 2.3 z M14.020000000000001 3.5799999999999983 q0 -0.4 -0.16 -0.63 t-0.58 -0.23 t-0.57 0.23 t-0.15 0.63 l0 13.9 q0 0.4 0.15 0.63 t0.57 0.23 t0.58 -0.23 t0.16 -0.63 l0 -13.9 z M21.68 3.6400000000000006 l0 2.8 q0 1.04 -0.16 1.72 t-0.51 1.31 t-1.15 1.75 q-0.82 1.12 -1.07 1.7 t-0.25 1.5 l0 5.58 l-1.66 0 l0 -18.68 l2.56 0 q2.24 0 2.24 2.32 z M18.54 2.9800000000000004 l0 7.2 q0.18 -0.24 0.2 -0.26 q0.8 -1.1 1.04 -1.7 t0.24 -1.56 l0 -2.82 q0 -0.4 -0.16 -0.63 t-0.58 -0.23 l-0.74 0 z M24.78 8.22 q0.24 0.6 1.04 1.7 q0.8 1.12 1.16 1.74 t0.52 1.29 t0.16 1.71 l0 3.04 q0 2.3 -2.24 2.3 l-0.3 0 q-1.2 0 -1.72 -0.61 t-0.52 -1.69 l0 -4.66 l1.66 0 l0 4.44 q0 0.4 0.15 0.63 t0.57 0.23 t0.58 -0.23 t0.16 -0.63 l0 -3.06 q0 -0.92 -0.25 -1.5 t-1.05 -1.7 q-0.8 -1.1 -1.16 -1.74 t-0.51 -1.32 t-0.15 -1.72 l0 -3.08 q0 -1.1 0.52 -1.7 t1.72 -0.6 l0.3 0 q2.24 0 2.24 2.3 l0 4.7 l-1.66 0 l0 -4.48 q0 -0.4 -0.16 -0.63 t-0.58 -0.23 t-0.57 0.23 t-0.15 0.63 l0 3.08 q0 0.96 0.24 1.56 z

" fill="#FFFFFF"/>
</svg>