<?xml version="1.0" encoding="utf-8"?>
<!-- Generator: Adobe Illustrator 23.0.2, SVG Export Plug-In . SVG Version: 6.00 Build 0)  -->
<svg version="1.1"
	 id="Layer_1" inkscape:version="0.92.2 5c3e80d, 2017-08-06" sodipodi:docname="visa.svg" xmlns:cc="http://creativecommons.org/ns#" xmlns:dc="http://purl.org/dc/elements/1.1/" xmlns:inkscape="http://www.inkscape.org/namespaces/inkscape" xmlns:rdf="http://www.w3.org/1999/02/22-rdf-syntax-ns#" xmlns:sketch="http://www.bohemiancoding.com/sketch/ns" xmlns:sodipodi="http://sodipodi.sourceforge.net/DTD/sodipodi-0.dtd" xmlns:svg="http://www.w3.org/2000/svg"
	 xmlns="http://www.w3.org/2000/svg" xmlns:xlink="http://www.w3.org/1999/xlink" x="0px" y="0px" viewBox="0 0 750 471"
	 style="enable-background:new 0 0 750 471;" xml:space="preserve">
<style type="text/css">
	.st0{fill:#FFFFFF;}
</style>
<sodipodi:namedview  bordercolor="#666666" borderopacity="1" gridtolerance="10" guidetolerance="10" id="namedview4878" inkscape:current-layer="Layer_1" inkscape:cx="83.333333" inkscape:cy="235.5" inkscape:pageopacity="0" inkscape:pageshadow="2" inkscape:window-height="869" inkscape:window-maximized="0" inkscape:window-width="1428" inkscape:window-x="164" inkscape:window-y="478" inkscape:zoom="0.384" objecttolerance="10" pagecolor="#ffffff" showgrid="false">
	</sodipodi:namedview>
<title  id="title4867">Slice 1</title>
<desc  id="desc4869">Created with Sketch.</desc>
<g id="visa" sketch:type="MSLayerGroup">
	<path id="Shape" sketch:type="MSShapeGroup" class="st0" d="M278.2,334.2l33.4-195.8h53.4l-33.4,195.8H278.2L278.2,334.2z"/>
	<path id="path13" sketch:type="MSShapeGroup" class="st0" d="M524.3,142.7c-10.6-4-27.1-8.2-47.8-8.2c-52.7,0-89.9,26.6-90.2,64.6
		c-0.3,28.1,26.5,43.8,46.8,53.2c20.8,9.6,27.8,15.7,27.7,24.3c-0.1,13.1-16.6,19.1-31.9,19.1c-21.4,0-32.7-3-50.2-10.3l-6.9-3.1
		l-7.5,43.8c12.5,5.5,35.5,10.2,59.4,10.4c56.1,0,92.5-26.2,92.9-66.9c0.2-22.3-14-39.2-44.8-53.2c-18.6-9.1-30.1-15.1-30-24.3
		c0-8.1,9.7-16.8,30.6-16.8c17.4-0.3,30.1,3.5,39.9,7.5l4.8,2.3L524.3,142.7"/>
	<path id="Path" sketch:type="MSShapeGroup" class="st0" d="M661.6,138.5h-41.2c-12.8,0-22.3,3.5-27.9,16.2l-79.2,179.4h56
		c0,0,9.2-24.1,11.2-29.4c6.1,0,60.6,0.1,68.3,0.1c1.6,6.9,6.5,29.3,6.5,29.3h49.5L661.6,138.5L661.6,138.5z M596.2,264.9
		c4.4-11.3,21.3-54.7,21.3-54.7c-0.3,0.5,4.4-11.3,7.1-18.7l3.6,16.9c0,0,10.2,46.7,12.4,56.5L596.2,264.9L596.2,264.9L596.2,264.9z
		"/>
	<path id="path16" class="st0" d="M45.9,138.5l-0.7,4.1c21.1,5.1,39.9,12.5,56.4,21.7L149,333.9l56.5-0.1l84-195.4h-56.5L180.7,272
		l-5.6-27.1c-0.3-0.8-0.5-1.7-0.8-2.5L156.1,155c-3.2-12.4-12.6-16.1-24.2-16.5H45.9z"/>
</g>
</svg>
